<?xml version="1.0" encoding="utf-8"?>
<!-- Generator: Adobe Illustrator 25.2.1, SVG Export Plug-In . SVG Version: 6.00 Build 0)  -->
<svg version="1.1" id="Layer_1" xmlns="http://www.w3.org/2000/svg" xmlns:xlink="http://www.w3.org/1999/xlink" x="0px" y="0px"
	 viewBox="0 0 38 32" style="enable-background:new 0 0 38 32;" xml:space="preserve">
<style type="text/css">
	.st0{fill:#FFFFFF;}
</style>
<g>
	<g>
		<path class="st0" d="M34.95,25.21c0.35-0.04,0.54-0.24,0.54-0.56c0-0.4-0.24-0.59-0.74-0.59h-0.79v2.09h0.3v-0.91h0.37l0.01,0.01
			l0.57,0.9h0.32l-0.62-0.93L34.95,25.21z M34.6,25h-0.35v-0.71h0.44c0.23,0,0.49,0.04,0.49,0.34C35.18,24.97,34.92,25,34.6,25z"/>
		<path class="st0" d="M34.64,23.13c-1.11,0-1.98,0.87-1.98,1.98c0,1.11,0.87,1.98,1.98,1.98c1.11,0,1.98-0.87,1.98-1.98
			C36.61,23.99,35.74,23.13,34.64,23.13z M34.64,26.82c-0.95,0-1.69-0.75-1.69-1.72c0-0.97,0.74-1.72,1.69-1.72
			c0.95,0,1.69,0.75,1.69,1.72C36.32,26.07,35.58,26.82,34.64,26.82z"/>
	</g>
	<path class="st0" d="M29.17,1H3.6C2.38,1,1.39,1.97,1.39,3.16v25.67C1.39,30.03,2.38,31,3.6,31h25.57c1.22,0,2.22-0.97,2.22-2.16
		V3.16C31.39,1.97,30.39,1,29.17,1z M10.29,26.56H5.83V12.25h4.45V26.56z M8.06,10.29c-1.43,0-2.58-1.16-2.58-2.58
		c0-1.42,1.15-2.58,2.58-2.58c1.42,0,2.58,1.16,2.58,2.58C10.64,9.13,9.48,10.29,8.06,10.29z M26.95,26.56H22.5V19.6
		c0-1.66-0.03-3.8-2.31-3.8c-2.32,0-2.67,1.81-2.67,3.68v7.08h-4.44V12.25h4.27v1.96h0.06c0.59-1.13,2.05-2.31,4.21-2.31
		c4.51,0,5.34,2.96,5.34,6.82V26.56z"/>
</g>
</svg>
